<svg width="120" height="25" viewBox="0 0 120 25" xmlns="http://www.w3.org/2000/svg"><title>bazar_logo_19@2x</title><g fill="none" fill-rule="evenodd"><path d="M0 0h120v25H0z"/><path d="M5.203 3C7.004 3 8.72 4.027 8.72 6.538v3.166c0 1.141-.43 2.225-1.744 2.625 1.257.485 1.744 1.426 1.744 2.625v3.508C8.72 21.002 7.004 22 5.203 22H0V3h5.203zm11.893 0l2.744 19h-3.688l-.257-3.053h-2.173L13.408 22H10.09l2.774-19h4.23zm12.263 0V4L24.985 18.69h4.174V22h-8.405V21l4.432-14.777H21.04V3h8.32zm8.005 0l2.744 19h-3.687l-.258-3.053h-2.172L33.676 22H30.36l2.773-19h4.23zm9.434 0c1.8 0 3.659 1.141 3.659 3.68v3.795c0 .941-.572 1.797-1.516 2.339.944.513 1.573 1.398 1.573 2.34v3.68c0 1.198.229 2.168.486 3.08V22h-3.088c-.571 0-.886-1.74-.886-2.938v-3.795c0-.485-.257-.998-.772-.998h-.857V22h-3.688V3h5.089zM4.603 13.812h-.915v5.135h.915c.4 0 .657-.228.657-.855v-3.424c0-.599-.257-.856-.657-.856zm10.348-5.22l-.829 7.389h1.458l-.629-7.39zm20.269 0l-.83 7.389h1.459l-.63-7.39zm11.091-2.51h-.915v5.362h.915c.4 0 .63-.228.63-.855V6.937c0-.628-.23-.856-.63-.856zm-41.708 0h-.915v5.02h.915c.4 0 .657-.257.657-.856V6.937c0-.628-.257-.856-.657-.856z" fill="#000"/></g></svg>